# xmcd
#
# Track frame offsets:
#	150
#	6356
#	10496
#
# Disc length: 240 seconds
#
# Revision: 0
# Processed by: cddbd v1.5.2PL0 Copyright (c) Steve Scherf et al.
# Submitted via: dBpowerAMP V4.0
#
DISCID=1b00ee03
DTITLE=XX - FI DE CURS
DYEAR=1900
DGENRE=Dance
TTITLE0=RIHANA
TTITLE1=SEGONA
TTITLE2=MAMAMIA
EXTD=FI DE CURS
EXTT0=
EXTT1=
EXTT2=
PLAYORDER=
